<svg width="13" height="14" viewBox="0 0 13 14" fill="none" xmlns="http://www.w3.org/2000/svg">
<path d="M8.31812 3.58125L4.68188 5.91875M4.68188 8.08125L8.31812 10.4187M5 7C5 8.10457 4.10457 9 3 9C1.89543 9 1 8.10457 1 7C1 5.89543 1.89543 5 3 5C4.10457 5 5 5.89543 5 7ZM12 11.5C12 12.6046 11.1046 13.5 10 13.5C8.89543 13.5 8 12.6046 8 11.5C8 10.3954 8.89543 9.5 10 9.5C11.1046 9.5 12 10.3954 12 11.5ZM12 2.5C12 3.60457 11.1046 4.5 10 4.5C8.89543 4.5 8 3.60457 8 2.5C8 1.39543 8.89543 0.5 10 0.5C11.1046 0.5 12 1.39543 12 2.5Z" stroke="#959393" stroke-linecap="round" stroke-linejoin="round"/>
</svg>
