<svg width="14" height="12" viewBox="0 0 14 12" fill="none" xmlns="http://www.w3.org/2000/svg">
<path d="M13.5 0.408936H0.5C0.223437 0.408936 0 0.632373 0 0.908936V10.9089C0 11.1855 0.223437 11.4089 0.5 11.4089H13.5C13.7766 11.4089 14 11.1855 14 10.9089V0.908936C14 0.632373 13.7766 0.408936 13.5 0.408936ZM12.875 2.14019V10.2839H1.125V2.14019L0.69375 1.80425L1.30781 1.01519L1.97656 1.5355H12.025L12.6938 1.01519L13.3078 1.80425L12.875 2.14019ZM12.025 1.53394L7 5.44019L1.975 1.53394L1.30625 1.01362L0.692188 1.80269L1.12344 2.13862L6.46094 6.28862C6.61444 6.40787 6.80328 6.47261 6.99766 6.47261C7.19203 6.47261 7.38088 6.40787 7.53438 6.28862L12.875 2.14019L13.3062 1.80425L12.6922 1.01519L12.025 1.53394Z" fill="#E7852B"/>
</svg>
