<svg width="14" height="14" viewBox="0 0 14 14" fill="none" xmlns="http://www.w3.org/2000/svg">
<path d="M1.29531 2.63862L2.95938 0.976123C3.1625 0.772998 3.43437 0.658936 3.72188 0.658936C4.00938 0.658936 4.28125 0.771436 4.48438 0.976123L6.27656 2.76519C6.47969 2.96831 6.59375 3.24175 6.59375 3.52925C6.59375 3.81831 6.48125 4.08862 6.27656 4.29331L4.87656 5.69487C5.19549 6.43798 5.65374 7.11315 6.22656 7.68394C6.8 8.2605 7.47031 8.71519 8.21406 9.03706L9.61406 7.6355C9.81719 7.43237 10.0891 7.31831 10.3766 7.31831C10.5184 7.31779 10.6589 7.34557 10.7898 7.40004C10.9207 7.4545 11.0395 7.53455 11.1391 7.6355L12.9328 9.42456C13.1359 9.62769 13.25 9.90112 13.25 10.1886C13.25 10.4777 13.1375 10.748 12.9328 10.9527L11.2703 12.6152C10.9234 12.9621 10.4453 13.1605 9.95469 13.1605C9.85313 13.1605 9.75469 13.1527 9.65469 13.1355C7.58594 12.7949 5.53281 11.6933 3.875 10.0371C2.21875 8.37769 1.11875 6.32456 0.775 4.25425C0.676562 3.66675 0.873438 3.06206 1.29531 2.63862ZM1.88281 4.06831C2.1875 5.9105 3.17813 7.748 4.67031 9.24019C6.1625 10.7324 7.99844 11.723 9.84062 12.0277C10.0719 12.0667 10.3094 11.9886 10.4781 11.8214L12.1109 10.1886L10.3797 8.45581L8.50781 10.3308L8.49375 10.3449L8.15625 10.2199C7.13293 9.84363 6.20365 9.24937 5.43283 8.47828C4.662 7.70719 4.06807 6.7777 3.69219 5.75425L3.56719 5.41675L5.45469 3.53081L3.72344 1.798L2.09062 3.43081C1.92188 3.59956 1.84375 3.83706 1.88281 4.06831Z" fill="#E7852B"/>
</svg>
