<svg width="68" height="13" viewBox="0 0 68 13" fill="none" xmlns="http://www.w3.org/2000/svg">
<path fill-rule="evenodd" clip-rule="evenodd" d="M5.78096 1.00061C5.81538 0.898528 5.90292 0.830933 6.0007 0.830933C6.09849 0.830933 6.18603 0.898528 6.22045 1.00061L7.40888 4.75855H10.7652C10.8635 4.75854 10.9514 4.82683 10.9854 4.92968C11.0195 5.03252 10.9925 5.14814 10.9178 5.21939L8.1132 7.81266L9.28706 11.7455C9.31928 11.8537 9.2851 11.9726 9.20252 12.0397C9.11994 12.1068 9.00793 12.1066 8.92551 12.0393L6.00024 9.64555L3.07355 12.0393C2.9911 12.1053 2.87996 12.1048 2.79804 12.0379C2.71612 11.9711 2.68198 11.8531 2.71341 11.7455L3.88727 7.81266L1.0822 5.21939C1.00749 5.14814 0.980495 5.03252 1.01455 4.92968C1.04861 4.82683 1.1365 4.75854 1.2348 4.75855H4.59159L5.78096 1.00061Z" fill="#FEC84B" stroke="#FEC84B"/>
<path fill-rule="evenodd" clip-rule="evenodd" d="M19.781 1.00061C19.8154 0.898528 19.9029 0.830933 20.0007 0.830933C20.0985 0.830933 20.186 0.898528 20.2205 1.00061L21.4089 4.75855H24.7652C24.8635 4.75854 24.9514 4.82683 24.9854 4.92968C25.0195 5.03252 24.9925 5.14814 24.9178 5.21939L22.1132 7.81266L23.2871 11.7455C23.3193 11.8537 23.2851 11.9726 23.2025 12.0397C23.1199 12.1068 23.0079 12.1066 22.9255 12.0393L20.0002 9.64555L17.0735 12.0393C16.9911 12.1053 16.88 12.1048 16.798 12.0379C16.7161 11.9711 16.682 11.8531 16.7134 11.7455L17.8873 7.81266L15.0822 5.21939C15.0075 5.14814 14.9805 5.03252 15.0146 4.92968C15.0486 4.82683 15.1365 4.75854 15.2348 4.75855H18.5916L19.781 1.00061Z" fill="#FEC84B" stroke="#FEC84B"/>
<path fill-rule="evenodd" clip-rule="evenodd" d="M33.781 1.00061C33.8154 0.898528 33.9029 0.830933 34.0007 0.830933C34.0985 0.830933 34.186 0.898528 34.2205 1.00061L35.4089 4.75855H38.7652C38.8635 4.75854 38.9514 4.82683 38.9854 4.92968C39.0195 5.03252 38.9925 5.14814 38.9178 5.21939L36.1132 7.81266L37.2871 11.7455C37.3193 11.8537 37.2851 11.9726 37.2025 12.0397C37.1199 12.1068 37.0079 12.1066 36.9255 12.0393L34.0002 9.64555L31.0735 12.0393C30.9911 12.1053 30.88 12.1048 30.798 12.0379C30.7161 11.9711 30.682 11.8531 30.7134 11.7455L31.8873 7.81266L29.0822 5.21939C29.0075 5.14814 28.9805 5.03252 29.0146 4.92968C29.0486 4.82683 29.1365 4.75854 29.2348 4.75855H32.5916L33.781 1.00061Z" fill="#FEC84B" stroke="#FEC84B"/>
<path fill-rule="evenodd" clip-rule="evenodd" d="M47.781 1.00061C47.8154 0.898528 47.9029 0.830933 48.0007 0.830933C48.0985 0.830933 48.186 0.898528 48.2205 1.00061L49.4089 4.75855H52.7652C52.8635 4.75854 52.9514 4.82683 52.9854 4.92968C53.0195 5.03252 52.9925 5.14814 52.9178 5.21939L50.1132 7.81266L51.2871 11.7455C51.3193 11.8537 51.2851 11.9726 51.2025 12.0397C51.1199 12.1068 51.0079 12.1066 50.9255 12.0393L48.0002 9.64555L45.0735 12.0393C44.9911 12.1053 44.88 12.1048 44.798 12.0379C44.7161 11.9711 44.682 11.8531 44.7134 11.7455L45.8873 7.81266L43.0822 5.21939C43.0075 5.14814 42.9805 5.03252 43.0146 4.92968C43.0486 4.82683 43.1365 4.75854 43.2348 4.75855H46.5916L47.781 1.00061Z" fill="#FEC84B" stroke="#FEC84B"/>
<path fill-rule="evenodd" clip-rule="evenodd" d="M61.781 1.00061C61.8154 0.898528 61.9029 0.830933 62.0007 0.830933C62.0985 0.830933 62.186 0.898528 62.2205 1.00061L63.4089 4.75855H66.7652C66.8635 4.75854 66.9514 4.82683 66.9854 4.92968C67.0195 5.03252 66.9925 5.14814 66.9178 5.21939L64.1132 7.81266L65.2871 11.7455C65.3193 11.8537 65.2851 11.9726 65.2025 12.0397C65.1199 12.1068 65.0079 12.1066 64.9255 12.0393L62.0002 9.64555L59.0735 12.0393C58.9911 12.1053 58.88 12.1048 58.798 12.0379C58.7161 11.9711 58.682 11.8531 58.7134 11.7455L59.8873 7.81266L57.0822 5.21939C57.0075 5.14814 56.9805 5.03252 57.0146 4.92968C57.0486 4.82683 57.1365 4.75854 57.2348 4.75855H60.5916L61.781 1.00061Z" fill="#FEC84B" stroke="#FEC84B"/>
</svg>
